{"title":"The Marathon 2012 DVDRip XviD-EXViD","uid":8169206,"size":735090688,"categoryP":"video","categoryS":"movies","magnet":"?xt=urn:btih:f4b52a5d548e208c098529b524cc1a2cff2ab0f4&amp;dn=The+Marathon+2012+DVDRip+XviD-EXViD&amp;tr=udp%3A%2F%2Ftracker.openbittorrent.com%3A80&amp;tr=udp%3A%2F%2Fopen.demonii.com%3A1337&amp;tr=udp%3A%2F%2Ftracker.coppersurfer.tk%3A6969&amp;tr=udp%3A%2F%2Fexodus.desync.com%3A6969","seeders":1,"leechers":0,"uploader":".SceNe.","files":1,"time":1361388899,"description":"The.Marathon.2012.DVDRip.XviD-EXViD\n\nEXViD aims to iNTERNAL those releases which have been lost in the archives\nEXViD aims to PRE non-internal releases which have poor sources and are likely skipped by others\n &lt;a href=&quot;\nhttp://www.imdb.com/title/tt2401621&quot; rel=&quot;nofollow&quot; target=&quot;_NEW&quot;&gt;\nhttp://www.imdb.com/title/tt2401621&lt;/a&gt;\nSubtitles: EN, NL FD\nDate: 2013.02\n\nDirector: Diederick Koopal\n\nGenres: Comedy  Drama  Sport\n\nPlot\nFour jaded guys in their fifties try to save their garage by running the Rotterdam marathon\ntogether.But for each of them there is more at stake than just reaching the finish\n\nCast\nStefan de Walle  ...  Gerard\nMartin van Waardenberg  ...  Leo\nMarcel Hensema  ...  Nico\nFrank Lammers  ...  Kees\nMimoun Oassa\nCynthia Abma\nDragan Bakema  ...  Tony\nMahjoub Benmoussa  ...  Oom Houssein\nManuel Broekman  ...  Ken\nJohn Buijsman  ...  Joop\nAat Ceelen  ...  Herman\nSofieke de Kater  ...  Zuster\nHerman den Blijker  ...  Hermijn Blijker\nJung Sun den Hollander  ...  Rntgenoloog\nNanette Drazic  ...  Prostituee\n\nStats\nFormat                          : AVI\nFormat/Info                      : Audio Video Interleave\nFile size                        : 701 MiB\nDuration                        : 1h 47mn\nOverall bit rate                : 913 Kbps\nWriting application              : VirtualDubMod 1.5.10.2 (build 2540/release\nWriting library                  : VirtualDubMod build 2540/release\n\nVideo\nID                              : 0\nFormat                          : MPEG-4 Visual\nFormat profile                  : Advanced SimpleL5\nFormat settings, BVOP            : Yes\nFormat settings, QPel            : No\nFormat settings, GMC            : No warppoints\nFormat settings, Matrix          : Default (H.263\nMuxing mode                      : Packed bitstream\nCodec ID                        : XVID\nCodec ID/Hint                    : XviD\nDuration                        : 1h 47mn\nBit rate                        : 779 Kbps\nWidth                            : 624 pixels\nHeight                          : 256 pixels\nDisplay aspect ratio            : 2.40:1\nFrame rate                      : 25.000 fps\nColor space                      : YUV\nChroma subsampling              : 4:2:0\nBit depth                        : 8 bits\nScan type                        : Progressive\nBits/(PixelFrame)              : 0.195\nStream size                      : 598 MiB (85\nWriting library                  : XviD 64\n\nAudio\nID                              : 1\nFormat                          : MPEG Audio\nFormat version                  : Version 1\nFormat profile                  : Layer 3\nMode                            : Joint stereo\nCodec ID                        : 55\nCodec ID/Hint                    : MP3\nDuration                        : 1h 47mn\nBit rate mode                    : Variable\nBit rate                        : 121 Kbps\nMinimum bit rate                : 128 Kbps\nChannel(s)                      : 2 channels\nSampling rate                    : 48.0 KHz\nStream size                      : 92.9 MiB (13\nAlignment                        : Aligned on interleaves\nInterleave, duration            : 24 ms (0.60 video frame\nInterleave, preload duration    : 518 ms\nWriting library                  : LAME4.0a\nEncoding settings                : -m j -V 4 -q 5 -lowpass 17.5 --vbr-old -b 128\n\nRelease notes\nenjoy","torrent":{"xt":"urn:btih:f4b52a5d548e208c098529b524cc1a2cff2ab0f4","amp;dn":"The+Marathon+2012+DVDRip+XviD-EXViD","amp;tr":["udp%3A%2F%2Ftracker.openbittorrent.com%3A80","udp%3A%2F%2Fopen.demonii.com%3A1337","udp%3A%2F%2Ftracker.coppersurfer.tk%3A6969","udp%3A%2F%2Fexodus.desync.com%3A6969"],"infoHash":"f4b52a5d548e208c098529b524cc1a2cff2ab0f4","infoHashBuffer":{"type":"Buffer","data":[244,181,42,93,84,142,32,140,9,133,41,181,36,204,26,44,255,42,176,244]},"announce":[],"urlList":[]}}